<svg xmlns="http://www.w3.org/2000/svg" viewBox="0 0 1800 740" preserveAspectRatio="xMidYMid slice">
  <defs>
    <linearGradient id="sky" x1="0" x2="0" y1="0" y2="1">
      <stop offset="0" stop-color="#8aa4bc"/>
      <stop offset="0.48" stop-color="#d7dde2"/>
      <stop offset="1" stop-color="#7d8d96"/>
    </linearGradient>
    <linearGradient id="lake" x1="0" x2="1" y1="0" y2="1">
      <stop offset="0" stop-color="#5b7890"/>
      <stop offset="1" stop-color="#233f56"/>
    </linearGradient>
    <filter id="blur"><feGaussianBlur stdDeviation="18"/></filter>
  </defs>
  <rect width="1800" height="740" fill="url(#sky)"/>
  <g opacity=".45" filter="url(#blur)">
    <ellipse cx="280" cy="155" rx="230" ry="55" fill="#f1f4f6"/>
    <ellipse cx="760" cy="125" rx="310" ry="70" fill="#eef2f5"/>
    <ellipse cx="1290" cy="150" rx="360" ry="80" fill="#eef2f5"/>
  </g>
  <path d="M0 322 C185 250 285 185 440 290 C575 383 650 365 785 300 C905 243 1015 238 1160 325 C1275 395 1395 330 1510 255 C1630 177 1720 235 1800 265 L1800 740 L0 740 Z" fill="#384957"/>
  <path d="M0 390 C185 315 310 245 480 360 C620 456 730 420 890 340 C1015 277 1155 292 1300 385 C1430 470 1545 390 1690 314 C1730 294 1765 286 1800 282 L1800 740 L0 740 Z" fill="#263846"/>
  <path d="M0 525 C255 488 515 475 720 520 C900 558 1070 545 1240 515 C1450 478 1630 495 1800 525 L1800 740 L0 740 Z" fill="url(#lake)" opacity=".92"/>
  <path d="M0 560 C210 548 430 548 650 574 C910 607 1135 589 1375 560 C1540 540 1688 545 1800 565 L1800 740 L0 740 Z" fill="#1a3347" opacity=".65"/>
  <path d="M0 458 C120 405 230 366 360 435 C460 490 565 505 740 475 L740 740 L0 740 Z" fill="#223327" opacity=".86"/>
  <path d="M1800 390 C1700 388 1570 425 1455 493 C1370 545 1250 570 1105 552 L1105 740 L1800 740 Z" fill="#25352a" opacity=".92"/>
</svg>
